<svg preserveAspectRatio="xMidYMid meet" width="100%" height="100%" overflow="visible" style="display: block;" viewBox="0 0 30 30" fill="none" xmlns="http://www.w3.org/2000/svg">
<g id="Frame 99">
<path id="Fill-134" fill-rule="evenodd" clip-rule="evenodd" d="M18.0316 30H16.1283L15.0126 24.4865L13.908 30H12.0054L13.6615 21.6932L13.9434 21.7535C14.2722 21.8139 14.613 21.8378 15.0126 21.8378C15.4233 21.8378 15.7527 21.8015 16.0577 21.7415L16.3513 21.6692L18.0316 30Z" fill="var(--fill-0, #35A8E0)"/>
<path id="Fill-135" fill-rule="evenodd" clip-rule="evenodd" d="M27.3115 23.2463L22.5187 20.7543L25.9724 25.0159L24.8096 26.5688L19.5235 20.0678L19.7232 19.8756C20.2399 19.3457 20.6626 18.7559 20.9683 18.142L21.0974 17.8771L28.4853 21.6931L27.3115 23.2463Z" fill="var(--fill-0, white)"/>
<path id="Fill-136" fill-rule="evenodd" clip-rule="evenodd" d="M30 14.2055L21.7318 14.3982L21.7081 14.1212C21.6375 13.4351 21.4616 12.7729 21.18 12.1347L21.0623 11.8698L28.568 8.33077L29.0396 10.2326L24.3862 12.4117L29.5318 12.3034L30 14.2055Z" fill="var(--fill-0, white)"/>
<path id="Fill-137" fill-rule="evenodd" clip-rule="evenodd" d="M23.893 2.55232L18.8775 9.26951L18.6541 9.11323C18.0902 8.74 17.5264 8.47506 16.9154 8.30679L16.6451 8.22247L18.6541 0L20.3691 0.830783L19.1715 5.73047L22.1667 1.70954L23.893 2.55232Z" fill="var(--fill-0, white)"/>
<path id="Fill-138" fill-rule="evenodd" clip-rule="evenodd" d="M6.09669 2.5641L11.1125 9.28164L11.3473 9.125C11.8877 8.76376 12.4633 8.48684 13.086 8.30621L13.3562 8.22225L11.3473 0.0117711L9.63232 0.842557L10.8306 5.75424L7.82337 1.72132L6.09669 2.5641Z" fill="var(--fill-0, white)"/>
<path id="Fill-139" fill-rule="evenodd" clip-rule="evenodd" d="M8.93908 11.8823L8.83374 12.1469C8.56352 12.797 8.38727 13.4592 8.3167 14.1333L8.2933 14.4103L0 14.2416L0.469535 12.3275L5.62686 12.4358L0.986577 10.245L1.44475 8.36687L8.93908 11.8823Z" fill="var(--fill-0, white)"/>
<path id="Fill-140" fill-rule="evenodd" clip-rule="evenodd" d="M10.4902 20.0678L5.22752 26.5808L4.05264 25.0278L7.4943 20.7663L2.71357 23.2583L1.55075 21.7174L8.91564 17.8771L9.05678 18.142C9.36246 18.7559 9.77382 19.3457 10.3019 19.8756L10.4902 20.0678Z" fill="var(--fill-0, white)"/>
</g>
</svg>
