<svg preserveAspectRatio="none" overflow="visible" style="display: block;" width="60.0003" height="59.9997" viewBox="0 0 60.0003 59.9997" fill="none" xmlns="http://www.w3.org/2000/svg">
<g id="Group">
<path id="Vector" d="M29.9927 16.9727C37.1792 16.9646 43.0275 22.7831 43.0309 29.9462C43.0344 37.1922 37.2183 43.0383 30.0134 43.0302C22.7751 43.0221 16.9913 37.2279 16.974 29.9681C16.9567 22.813 22.7993 16.9819 29.9927 16.9727ZM37.1227 30.0003C37.1261 26.0503 33.9311 22.8602 29.9823 22.8717C26.0312 22.8832 22.8684 26.0745 22.8788 30.0383C22.8892 33.9537 26.0462 37.0989 29.98 37.1139C33.9427 37.13 37.1192 33.9664 37.1227 30.0003Z" fill="#2AB674"/>
<path id="Vector_2" d="M39.4129 46.9406C39.4544 43.0689 43.5104 39.2295 47.3659 39.4125C49.3126 39.5046 50.7338 40.8781 50.8975 42.826C51.2352 46.8531 46.9579 51.1749 42.9157 50.8894C40.7534 50.7363 39.3887 49.1971 39.4118 46.9406H39.4129Z" fill="#2AB674"/>
<path id="Vector_3" d="M56.1833 30.4714C56.1464 31.9404 55.6796 33.7329 54.3587 35.2134C52.6875 37.0876 50.2382 37.0934 48.5404 35.2468C46.0923 32.5839 46.0992 27.3964 48.5542 24.7473C50.2439 22.9237 52.6033 22.9168 54.3149 24.7312C55.4848 25.9711 56.1948 27.9731 56.1833 30.4725V30.4714Z" fill="#2AB674"/>
<path id="Vector_4" d="M47.027 20.5936C43.2026 20.5694 39.3598 16.6759 39.414 12.8802C39.4463 10.6099 40.9735 9.09946 43.2556 9.08219C47.0408 9.05341 50.9562 12.9792 50.9147 16.7634C50.8893 19.0843 49.3425 20.6086 47.0281 20.5936H47.027Z" fill="#2AB674"/>
<path id="Vector_5" d="M13.0472 39.4027C16.8923 39.4487 20.7051 43.4217 20.5921 47.2658C20.5322 49.2931 19.1295 50.7506 17.102 50.8934C13.0564 51.1766 8.78832 46.8732 9.1122 42.8357C9.28048 40.7347 10.8376 39.3774 13.0483 39.4027H13.0472Z" fill="#2AB674"/>
<path id="Vector_6" d="M20.5943 13.0274C20.5943 16.8715 16.5037 20.7731 12.6679 20.59C10.6715 20.4945 9.19506 19.1118 9.11899 17.1144C9.00488 14.1073 10.5759 11.9809 12.9191 10.3335C13.9784 9.58861 15.1702 9.14883 16.483 9.09472C18.9691 8.99111 20.5955 10.5453 20.5943 13.0274Z" fill="#2AB674"/>
<path id="Vector_7" d="M30.0479 56.1735C28.2464 56.1551 26.6593 55.7395 25.2635 54.7379C22.8015 52.9707 22.7404 50.1191 25.109 48.2402C27.7543 46.1403 32.4454 46.1944 35.0433 48.3542C37.1307 50.0891 37.1768 52.6737 35.1159 54.4386C33.6383 55.7027 31.8656 56.1586 30.0491 56.1747L30.0479 56.1735Z" fill="#2AB674"/>
<path id="Vector_8" d="M30.0215 13.3078C28.1001 13.2456 26.2917 12.8323 24.806 11.5003C22.8719 9.76654 22.8996 7.29249 24.8602 5.58173C27.5146 3.2654 32.4305 3.24583 35.1091 5.54143C37.1123 7.25911 37.1492 9.76539 35.1794 11.5188C33.7156 12.822 31.9348 13.2445 30.0227 13.3078H30.0215Z" fill="#2AB674"/>
<path id="Vector_9" d="M13.3029 29.9446C13.2465 31.9743 12.8004 33.7461 11.4899 35.2024C9.76444 37.1181 7.34974 37.1054 5.62199 35.1909C3.23379 32.5442 3.22342 27.474 5.60124 24.8284C7.32899 22.9047 9.72986 22.8725 11.4703 24.7789C12.835 26.2733 13.266 28.1072 13.3029 29.9458V29.9446Z" fill="#2AB674"/>
<path id="Vector_10" d="M54.8578 16.7859C54.92 15.896 54.8382 14.9899 55.7384 14.6135C56.672 14.2232 57.3313 14.8806 57.8811 15.4953C59.2365 17.0104 59.9661 18.8052 59.9926 20.8464C60.0019 21.5717 59.897 22.3545 59.1305 22.6884C58.3571 23.0245 57.7347 22.5548 57.2137 22.0345C55.7407 20.562 55.0272 18.7465 54.8589 16.7859H54.8578Z" fill="#2AB674"/>
<path id="Vector_11" d="M16.5233 5.14644C16.3343 5.13032 16.1118 5.12572 15.8951 5.09118C14.5086 4.86669 14.0729 3.89157 14.92 2.7714C16.0427 1.28513 17.6575 0.586315 19.4175 0.175317C20.1759 -0.00197689 20.9435 -0.0802602 21.7112 0.152294C22.7866 0.476948 23.0885 1.22181 22.5099 2.18887C22.0581 2.94409 21.3769 3.46791 20.6369 3.91115C19.3829 4.66292 18.0286 5.10154 16.5245 5.14759L16.5233 5.14644Z" fill="#2AB674"/>
<path id="Vector_12" d="M5.1461 43.2705C5.08731 44.0982 5.16684 44.9974 4.27242 45.3853C3.37685 45.7733 2.73139 45.1539 2.18621 44.5668C0.796175 43.0725 0.082713 41.2742 0.0135569 39.2399C-0.0118004 38.4847 0.0757966 37.6604 0.86994 37.3162C1.71249 36.9512 2.36487 37.5061 2.90774 38.076C4.29778 39.5346 4.9928 41.303 5.1461 43.2693V43.2705Z" fill="#2AB674"/>
<path id="Vector_13" d="M59.9882 39.3771C59.8498 41.3389 59.1652 43.0807 57.8489 44.5589C57.5527 44.8917 57.2023 45.1657 56.7897 45.3453C55.9621 45.7056 55.3386 45.4189 55.0262 44.5589C54.881 44.1583 54.8614 43.7439 54.8787 43.3317C54.9628 41.3182 55.7247 39.5809 57.0721 38.0923C57.1827 37.9703 57.3095 37.8598 57.4409 37.7585C57.9354 37.374 58.469 37.0401 59.1156 37.298C59.7703 37.5582 59.8798 38.1948 59.9847 38.7992C60.017 38.9869 59.9893 39.1849 59.9893 39.3783L59.9882 39.3771Z" fill="#2AB674"/>
<path id="Vector_14" d="M5.15068 16.6638C5.01813 18.697 4.27239 20.524 2.80052 22.0333C2.5919 22.2474 2.33141 22.4259 2.06631 22.5663C1.18227 23.0349 0.493012 22.7598 0.172589 21.8226C-0.0763733 21.0939 -0.0222025 20.3582 0.124178 19.6145C0.435381 18.035 1.06701 16.6109 2.17927 15.4343C2.73598 14.846 3.38028 14.2439 4.26779 14.6054C5.13224 14.9577 5.07922 15.8338 5.15068 16.665V16.6638Z" fill="#2AB674"/>
<path id="Vector_15" d="M16.6098 54.8438C18.6349 54.9658 20.4468 55.6842 21.9556 57.1094C22.193 57.3328 22.3959 57.6102 22.5538 57.8969C23.054 58.796 22.7555 59.5259 21.7804 59.8345C21.0185 60.0762 20.2543 60.0071 19.4879 59.8425C17.9445 59.5098 16.5383 58.8962 15.4007 57.7806C14.8475 57.2372 14.2562 56.6236 14.5939 55.7602C14.9374 54.884 15.8007 54.9197 16.611 54.8449L16.6098 54.8438Z" fill="#2AB674"/>
<path id="Vector_16" d="M39.4486 0.00115238C41.4334 0.195715 43.3236 0.871501 44.8105 2.428C45.2727 2.91153 45.698 3.47679 45.4398 4.20209C45.1597 4.98494 44.4232 5.10928 43.7294 5.12079C41.5867 5.15878 39.7218 4.40356 38.1462 2.96794C37.5445 2.41994 36.9474 1.75912 37.3243 0.88071C37.6828 0.0460496 38.5507 0.0552603 39.4497 0L39.4486 0.00115238Z" fill="#2AB674"/>
<path id="Vector_17" d="M39.4832 59.9997C39.1467 59.9825 38.9784 59.9928 38.8159 59.9629C38.2119 59.8535 37.5733 59.7511 37.3071 59.1017C37.0432 58.4582 37.3371 57.8941 37.7658 57.437C39.4475 55.6434 41.5222 54.7627 43.9922 54.9008C44.5823 54.9342 45.1621 55.1092 45.4191 55.7309C45.6888 56.3871 45.3638 56.9293 44.9581 57.3921C43.4666 59.0902 41.4991 59.7821 39.4832 59.9997Z" fill="#2AB674"/>
</g>
</svg>
